<svg width="35" height="35" viewBox="0 0 35 35" fill="none" xmlns="http://www.w3.org/2000/svg">
<rect width="35" height="35" rx="17.5" fill="white"/>
<path d="M7.74609 15.6133C7.74609 11.3164 11.2422 7.82031 15.5391 7.82031C19.8359 7.82031 23.332 11.3164 23.332 15.6133C23.332 17.3906 22.7363 19.0215 21.7305 20.3301L26.5059 25.1348C26.7109 25.3398 26.8281 25.623 26.8281 25.9355C26.8281 26.5898 26.3691 27.0879 25.7051 27.0879C25.3926 27.0879 25.0996 26.9805 24.875 26.7559L20.0703 21.9414C18.791 22.8594 17.2383 23.4062 15.5391 23.4062C11.2422 23.4062 7.74609 19.9102 7.74609 15.6133ZM9.41602 15.6133C9.41602 18.9922 12.1602 21.7363 15.5391 21.7363C18.918 21.7363 21.6621 18.9922 21.6621 15.6133C21.6621 12.2344 18.918 9.49023 15.5391 9.49023C12.1602 9.49023 9.41602 12.2344 9.41602 15.6133Z" fill="black"/>
</svg>
