<svg width="81" height="81" viewBox="0 0 81 81" fill="none" xmlns="http://www.w3.org/2000/svg">
<path d="M40.3359 80.6406C18.5781 80.6406 0.492188 62.5547 0.492188 40.7969C0.492188 19 18.5391 0.953125 40.2969 0.953125C62.0938 0.953125 80.1797 19 80.1797 40.7969C80.1797 62.5547 62.1328 80.6406 40.3359 80.6406ZM40.2969 47.4766C47.8359 47.5547 53.6953 41.1484 53.6953 32.75C53.6953 24.8594 47.7969 18.2969 40.2969 18.2969C32.8359 18.2969 26.8594 24.8594 26.8984 32.75C26.8984 41.1484 32.7969 47.3984 40.2969 47.4766ZM40.2969 74.7031C49.2812 74.7031 58.3047 71.0312 64.3203 64.6641C60.0625 57.9453 50.8047 54.1172 40.2969 54.1172C29.7109 54.1172 20.5312 58.0234 16.3125 64.6641C22.2891 71.0312 31.3516 74.7031 40.2969 74.7031Z" fill="black" fill-opacity="0.2"/>
</svg>
