<svg width="20" height="21" viewBox="0 0 20 21" fill="none" xmlns="http://www.w3.org/2000/svg">
<rect x="0.5" y="1" width="19" height="19" rx="9.5" stroke="black" stroke-opacity="0.2"/>
<path d="M14.375 6.75C14.2092 6.75 14.0503 6.81585 13.9331 6.93306C13.8158 7.05027 13.75 7.20924 13.75 7.375V9.875C13.75 10.0408 13.6841 10.1997 13.5669 10.3169C13.4497 10.4342 13.2908 10.5 13.125 10.5H7.13125L7.94375 9.69375C8.06144 9.57606 8.12755 9.41644 8.12755 9.25C8.12755 9.08356 8.06144 8.92394 7.94375 8.80625C7.82606 8.68856 7.66644 8.62244 7.5 8.62244C7.33356 8.62244 7.17394 8.68856 7.05625 8.80625L5.18125 10.6813C5.12435 10.7407 5.07974 10.8108 5.05 10.8875C4.98748 11.0397 4.98748 11.2103 5.05 11.3625C5.07974 11.4392 5.12435 11.5093 5.18125 11.5687L7.05625 13.4437C7.11435 13.5023 7.18347 13.5488 7.25964 13.5806C7.3358 13.6123 7.41749 13.6286 7.5 13.6286C7.5825 13.6286 7.6642 13.6123 7.74036 13.5806C7.81652 13.5488 7.88564 13.5023 7.94375 13.4437C8.00233 13.3856 8.04882 13.3165 8.08055 13.2404C8.11228 13.1642 8.12862 13.0825 8.12862 13C8.12862 12.9175 8.11228 12.8358 8.08055 12.7596C8.04882 12.6835 8.00233 12.6144 7.94375 12.5563L7.13125 11.75H13.125C13.6223 11.75 14.0992 11.5525 14.4508 11.2008C14.8025 10.8492 15 10.3723 15 9.875V7.375C15 7.20924 14.9341 7.05027 14.8169 6.93306C14.6997 6.81585 14.5408 6.75 14.375 6.75Z" fill="black"/>
</svg>
