<svg width="24" height="25" viewBox="0 0 24 25" fill="none" xmlns="http://www.w3.org/2000/svg">
<path d="M7.98905 5.003L15.297 12.5L7.98905 19.997C7.8582 20.1309 7.78495 20.3108 7.78495 20.498C7.78495 20.6852 7.8582 20.8651 7.98905 20.999C8.05259 21.0639 8.12844 21.1154 8.21215 21.1506C8.29586 21.1857 8.38575 21.2038 8.47655 21.2038C8.56734 21.2038 8.65723 21.1857 8.74094 21.1506C8.82465 21.1154 8.9005 21.0639 8.96404 20.999L16.74 13.0235C16.8766 12.8834 16.953 12.6956 16.953 12.5C16.953 12.3044 16.8766 12.1166 16.74 11.9765L8.96555 4.001C8.90195 3.93568 8.82592 3.88377 8.74193 3.84832C8.65794 3.81288 8.56771 3.79462 8.47655 3.79462C8.38538 3.79462 8.29515 3.81288 8.21116 3.84832C8.12717 3.88377 8.05114 3.93568 7.98754 4.001C7.8567 4.13494 7.78345 4.31476 7.78345 4.502C7.78345 4.68924 7.8567 4.86906 7.98754 5.003H7.98905Z" fill="black"/>
</svg>
