<svg width="24" height="25" viewBox="0 0 24 25" fill="none" xmlns="http://www.w3.org/2000/svg">
<path d="M21 10.563V4.5C21 4.23478 20.8946 3.98043 20.7071 3.79289C20.5196 3.60536 20.2652 3.5 20 3.5H19C17.021 5.479 13.303 6.587 11 7.113V17.887C13.303 18.413 17.021 19.521 19 21.5H20C20.2652 21.5 20.5196 21.3946 20.7071 21.2071C20.8946 21.0196 21 20.7652 21 20.5V14.437C21.4298 14.3265 21.8106 14.0762 22.0825 13.7255C22.3544 13.3749 22.502 12.9437 22.502 12.5C22.502 12.0563 22.3544 11.6251 22.0825 11.2745C21.8106 10.9238 21.4298 10.6735 21 10.563ZM5 7.5C4.46957 7.5 3.96086 7.71071 3.58579 8.08579C3.21071 8.46086 3 8.96957 3 9.5V15.5C3 16.0304 3.21071 16.5391 3.58579 16.9142C3.96086 17.2893 4.46957 17.5 5 17.5H6L7 22.5H9V7.5H5Z" fill="#AF52DE"/>
</svg>
