<svg width="35" height="35" viewBox="0 0 35 35" fill="none" xmlns="http://www.w3.org/2000/svg">
<rect width="35" height="35" rx="17.5" fill="white"/>
<path d="M18.7207 28.25C17.8125 28.25 17.5098 27.5273 17.2168 26.541L15.166 19.5781L8.11523 17.5078C7.17773 17.2246 6.49414 16.9219 6.49414 16.0234C6.49414 15.3105 7.12891 14.8125 7.94922 14.5L24.7461 8.06445C25.1953 7.88867 25.5957 7.79102 25.9277 7.79102C26.5625 7.79102 26.9531 8.18164 26.9531 8.81641C26.9531 9.14844 26.8555 9.54883 26.6797 9.99805L20.2832 26.707C19.9219 27.6445 19.4238 28.25 18.7207 28.25ZM15.6055 18.0938L22.3242 11.375C22.8613 10.8379 23.6621 10.2129 24.3066 9.68555C23.584 10.0176 22.832 10.4082 22.0508 10.7012L8.84766 15.7012C8.70117 15.7598 8.66211 15.8086 8.66211 15.877C8.66211 15.9453 8.71094 15.9844 8.86719 16.0332L15.6055 18.0938ZM18.877 26.1016C18.9453 26.1016 18.9844 26.043 19.043 25.8965L24.043 12.6934C24.3359 11.9023 24.7363 11.1504 25.0684 10.4082C24.5508 11.0723 23.8965 11.8926 23.3691 12.4199L16.6504 19.1387L18.7109 25.877C18.7598 26.0332 18.7988 26.1016 18.877 26.1016Z" fill="#AF52DE"/>
</svg>
