<svg width="361" height="220" viewBox="0 0 361 220" fill="none" xmlns="http://www.w3.org/2000/svg">
<path d="M65.5 60C51.6929 60 40.5 71.1929 40.5 85C40.5 98.8073 51.6929 110 65.5 110C51.6929 110 40.5 121.193 40.5 135C40.5 148.807 51.6929 160 65.5 160C79.3073 160 90.5 148.807 90.5 135C90.5 148.807 101.693 160 115.5 160C129.307 160 140.5 148.807 140.5 135C140.5 121.193 129.307 110 115.5 110C129.307 110 140.5 98.8073 140.5 85C140.5 71.1929 129.307 60 115.5 60C101.693 60 90.5 71.1929 90.5 85C90.5 71.1929 79.3073 60 65.5 60Z" fill="#A483D0"/>
<rect x="150.5" y="80" width="60" height="60" rx="30" fill="#A483D0"/>
<path d="M245.5 60C231.693 60 220.5 71.1929 220.5 85C220.5 98.8073 231.693 110 245.5 110C231.693 110 220.5 121.193 220.5 135C220.5 148.807 231.693 160 245.5 160C259.307 160 270.5 148.807 270.5 135C270.5 148.807 281.693 160 295.5 160C309.307 160 320.5 148.807 320.5 135C320.5 121.193 309.307 110 295.5 110C309.307 110 320.5 98.8073 320.5 85C320.5 71.1929 309.307 60 295.5 60C281.693 60 270.5 71.1929 270.5 85C270.5 71.1929 259.307 60 245.5 60Z" fill="#A483D0"/>
</svg>
